<mxfile host="app.diagrams.net" agent="Mozilla/5.0 (Windows NT 10.0; Win64; x64) AppleWebKit/537.36 (KHTML, like Gecko) Chrome/137.0.0.0 Safari/537.36" version="27.1.5">
  <diagram name="Página-1" id="3iZ07diNiwnlzC45c9ho">
    <mxGraphModel grid="1" page="1" gridSize="10" guides="1" tooltips="1" connect="1" arrows="1" fold="1" pageScale="1" pageWidth="827" pageHeight="1169" math="0" shadow="0">
      <root>
        <mxCell id="0" />
        <mxCell id="1" parent="0" />
        <mxCell id="a6NMS0UaciUVUQemL5UT-1" value="energy = None" style="whiteSpace=wrap;strokeWidth=2;" vertex="1" parent="1">
          <mxGeometry x="317" y="-80" width="163" height="54" as="geometry" />
        </mxCell>
        <mxCell id="a6NMS0UaciUVUQemL5UT-2" value="Buscar métrica &#39;node_network_power_consumption_variation_rate_occupation&#39;" style="whiteSpace=wrap;strokeWidth=2;" vertex="1" parent="1">
          <mxGeometry x="140" y="24" width="516" height="78" as="geometry" />
        </mxCell>
        <mxCell id="a6NMS0UaciUVUQemL5UT-3" value="¿Encontró métrica?" style="rhombus;strokeWidth=2;whiteSpace=wrap;" vertex="1" parent="1">
          <mxGeometry x="303" y="152" width="190" height="190" as="geometry" />
        </mxCell>
        <mxCell id="a6NMS0UaciUVUQemL5UT-4" value="Continuar lectura del mensaje" style="whiteSpace=wrap;strokeWidth=2;" vertex="1" parent="1">
          <mxGeometry x="321" y="950" width="155" height="54" as="geometry" />
        </mxCell>
        <mxCell id="a6NMS0UaciUVUQemL5UT-5" value="Extraer y validar valor&#xa;    (se comprueba que es una lista con elementos)" style="whiteSpace=wrap;strokeWidth=2;" vertex="1" parent="1">
          <mxGeometry x="361" y="414" width="220" height="78" as="geometry" />
        </mxCell>
        <mxCell id="a6NMS0UaciUVUQemL5UT-7" value="¿ENERGYAWARE?" style="rhombus;strokeWidth=2;whiteSpace=wrap;" vertex="1" parent="1">
          <mxGeometry x="387" y="550" width="168" height="168" as="geometry" />
        </mxCell>
        <mxCell id="a6NMS0UaciUVUQemL5UT-8" value="energy = float(val)" style="whiteSpace=wrap;strokeWidth=2;" vertex="1" parent="1">
          <mxGeometry x="264" y="790" width="193" height="54" as="geometry" />
        </mxCell>
        <mxCell id="a6NMS0UaciUVUQemL5UT-9" value="energy = 0.1" style="whiteSpace=wrap;strokeWidth=2;" vertex="1" parent="1">
          <mxGeometry x="507" y="790" width="149" height="54" as="geometry" />
        </mxCell>
        <mxCell id="a6NMS0UaciUVUQemL5UT-11" value="" style="curved=1;startArrow=none;endArrow=block;exitX=0.5;exitY=1;entryX=0.5;entryY=0;rounded=0;" edge="1" parent="1" source="a6NMS0UaciUVUQemL5UT-1" target="a6NMS0UaciUVUQemL5UT-2">
          <mxGeometry relative="1" as="geometry">
            <Array as="points" />
          </mxGeometry>
        </mxCell>
        <mxCell id="a6NMS0UaciUVUQemL5UT-12" value="" style="curved=1;startArrow=none;endArrow=block;exitX=0.5;exitY=1;entryX=0.5;entryY=0;rounded=0;" edge="1" parent="1" source="a6NMS0UaciUVUQemL5UT-2" target="a6NMS0UaciUVUQemL5UT-3">
          <mxGeometry relative="1" as="geometry">
            <Array as="points" />
          </mxGeometry>
        </mxCell>
        <mxCell id="a6NMS0UaciUVUQemL5UT-13" value="No" style="curved=1;startArrow=none;endArrow=block;exitX=0;exitY=0.78;entryX=0;entryY=0.21;rounded=0;" edge="1" parent="1" source="a6NMS0UaciUVUQemL5UT-3" target="a6NMS0UaciUVUQemL5UT-4">
          <mxGeometry relative="1" as="geometry">
            <Array as="points">
              <mxPoint x="280" y="370" />
              <mxPoint x="190" y="790" />
            </Array>
          </mxGeometry>
        </mxCell>
        <mxCell id="a6NMS0UaciUVUQemL5UT-14" value="Sí" style="curved=1;startArrow=none;endArrow=block;exitX=0.78;exitY=1;entryX=0.5;entryY=0;rounded=0;" edge="1" parent="1" source="a6NMS0UaciUVUQemL5UT-3" target="a6NMS0UaciUVUQemL5UT-5">
          <mxGeometry relative="1" as="geometry">
            <Array as="points">
              <mxPoint x="471" y="378" />
            </Array>
          </mxGeometry>
        </mxCell>
        <mxCell id="a6NMS0UaciUVUQemL5UT-15" value="" style="curved=1;startArrow=none;endArrow=block;exitX=0.5;exitY=1;entryX=0.5;entryY=0;rounded=0;entryDx=0;entryDy=0;" edge="1" parent="1" source="a6NMS0UaciUVUQemL5UT-5" target="a6NMS0UaciUVUQemL5UT-7">
          <mxGeometry relative="1" as="geometry">
            <Array as="points" />
            <mxPoint x="471" y="542" as="targetPoint" />
          </mxGeometry>
        </mxCell>
        <mxCell id="a6NMS0UaciUVUQemL5UT-17" value="Sí" style="curved=1;startArrow=none;endArrow=block;exitX=0.04;exitY=1;entryX=0.5;entryY=0.01;rounded=0;" edge="1" parent="1" source="a6NMS0UaciUVUQemL5UT-7" target="a6NMS0UaciUVUQemL5UT-8">
          <mxGeometry relative="1" as="geometry">
            <Array as="points">
              <mxPoint x="361" y="754" />
            </Array>
          </mxGeometry>
        </mxCell>
        <mxCell id="a6NMS0UaciUVUQemL5UT-18" value="No" style="curved=1;startArrow=none;endArrow=block;exitX=0.96;exitY=1;entryX=0.5;entryY=0.01;rounded=0;" edge="1" parent="1" source="a6NMS0UaciUVUQemL5UT-7" target="a6NMS0UaciUVUQemL5UT-9">
          <mxGeometry relative="1" as="geometry">
            <Array as="points">
              <mxPoint x="582" y="754" />
            </Array>
          </mxGeometry>
        </mxCell>
        <mxCell id="a6NMS0UaciUVUQemL5UT-19" value="" style="curved=1;startArrow=none;endArrow=block;exitX=0.5;exitY=1.01;entryX=0.13;entryY=0.01;rounded=0;" edge="1" parent="1" source="a6NMS0UaciUVUQemL5UT-8" target="a6NMS0UaciUVUQemL5UT-4">
          <mxGeometry relative="1" as="geometry">
            <Array as="points">
              <mxPoint x="340" y="890" />
            </Array>
          </mxGeometry>
        </mxCell>
        <mxCell id="a6NMS0UaciUVUQemL5UT-20" value="" style="curved=1;startArrow=none;endArrow=block;exitX=0.5;exitY=1.01;entryX=0.87;entryY=0.01;rounded=0;" edge="1" parent="1" source="a6NMS0UaciUVUQemL5UT-9" target="a6NMS0UaciUVUQemL5UT-4">
          <mxGeometry relative="1" as="geometry">
            <Array as="points">
              <mxPoint x="500" y="920" />
            </Array>
          </mxGeometry>
        </mxCell>
      </root>
    </mxGraphModel>
  </diagram>
</mxfile>
